<?xml version="1.0" encoding="UTF-8" standalone="no"?><svg xmlns="http://www.w3.org/2000/svg" xmlns:xlink="http://www.w3.org/1999/xlink" fill="#000000" height="500" preserveAspectRatio="xMidYMid meet" version="1" viewBox="-0.9 0.0 331.8 500.0" width="331.8" zoomAndPan="magnify"><g id="change1_1"><path d="M53.2,125.6c-3.442,0-3.443-5.342,0-5.342S56.639,125.6,53.2,125.6Zm21.439-24.688a1.57,1.57,0,0,0-1.615,0l-.511.341a1.748,1.748,0,0,0-.619.619,1.706,1.706,0,0,0-.235.87,1.8,1.8,0,0,0,.5,1.22,1.923,1.923,0,0,0,1.219.5,1.725,1.725,0,0,0,1.489-.854l0,0,.341-.512a1.57,1.57,0,0,0,0-1.615A1.627,1.627,0,0,0,74.641,100.912ZM56.734,90.485c-3.443,0-3.442,5.341,0,5.341S60.177,90.485,56.734,90.485Zm13.119,44.4c-3.443,0-3.442,5.341,0,5.341S73.3,134.887,69.853,134.887ZM165.211,110c-3.443,0-3.443,5.341,0,5.341S168.654,110,165.211,110Zm-7.569-10.6c-3.443,0-3.442,5.341,0,5.341S161.085,99.4,157.642,99.4Zm25.229-10.092c-3.443,0-3.443,5.342,0,5.342S186.314,89.308,182.871,89.308ZM208.234,0c-3.443,0-3.442,5.341,0,5.341S211.677,0,208.234,0Zm1.514,18.669c-3.443,0-3.443,5.342,0,5.342S213.191,18.669,209.748,18.669Zm77.5-10.153a1.124,1.124,0,0,0-.459-.146,1.154,1.154,0,0,0-.19-.166,1.178,1.178,0,0,0-1.73,1.33l.013,0a1.547,1.547,0,0,0,1.047,1.075,1.627,1.627,0,0,0,1.043-.014,1.258,1.258,0,0,0,.679-.522A1.136,1.136,0,0,0,287.245,8.516ZM228.7,76.559c-3.443,0-3.442,5.341,0,5.341S232.14,76.559,228.7,76.559ZM293,50.753c3.437,0,3.443-5.342,0-5.342S289.56,50.753,293,50.753ZM178.434,483.359c-3.442,0-3.443,5.341,0,5.341S181.876,483.359,178.434,483.359Zm-1.883-20.243c-3.442,0-3.443,5.342,0,5.342S179.993,463.116,176.551,463.116Zm11.3,2.825c-3.443,0-3.442,5.341,0,5.341S191.292,465.941,187.849,465.941ZM277.3,492.305c-3.443,0-3.443,5.341,0,5.341S280.741,492.305,277.3,492.305Zm-3.766-23.539c-3.442,0-3.443,5.341,0,5.341S276.974,468.766,273.532,468.766Zm22.6,25.893c-3.443,0-3.443,5.341,0,5.341S299.572,494.659,296.129,494.659Zm-21.358-290.88c3.437,0,3.443-5.342,0-5.342S271.328,203.779,274.771,203.779Zm-9.736-43.714c-3.442,0-3.443,5.341,0,5.341S268.477,160.065,265.035,160.065Zm27.487,4.581c-3.443,0-3.442,5.342,0,5.342S295.965,164.646,292.522,164.646ZM90.382,61.782a2.16,2.16,0,0,0-.774-2.956h0l-.516-.217a1.629,1.629,0,0,0-.862-.039,1.662,1.662,0,0,0-.22.039l-.016,0-.453.061-.407.172a1.284,1.284,0,0,0-.478.439.852.852,0,0,0-.219.376.83.83,0,0,0-.116.429.85.85,0,0,0,0,.453,1.307,1.307,0,0,0,.062.34l.054.4a1.607,1.607,0,0,0,.386.729,1.633,1.633,0,0,0,.607.557,1.6,1.6,0,0,0,.8.256A2.221,2.221,0,0,0,90.382,61.782ZM71.935,48.916q.043,0,.087,0c.416.007.84.037,1.255.015a2.8,2.8,0,0,0,1.24-.331,1.769,1.769,0,0,0,.182-2.97,2.5,2.5,0,0,0-1.356-.468,12.938,12.938,0,0,0-1.321.011,1.872,1.872,0,0,0-.087,3.743ZM115.553,60.41c-3.443,0-3.443,5.342,0,5.342S119,60.41,115.553,60.41ZM92.369,89.129l.513.632a1.283,1.283,0,0,0,2.19-.907,1.247,1.247,0,0,0-.376-.907l-.632-.514a1.348,1.348,0,0,0-.847-.351,1.2,1.2,0,0,0-1.2,1.2l.043.319A1.2,1.2,0,0,0,92.369,89.129ZM164.807,7.906c3.437,0,3.443-5.341,0-5.341S161.365,7.906,164.807,7.906ZM327.462,55.828c-3.442,0-3.443,5.342,0,5.342S330.9,55.828,327.462,55.828ZM301.689,31.335a1.473,1.473,0,1,0-1.418-1.418A1.473,1.473,0,0,0,301.689,31.335ZM102.434,220.952l-.321-.12c-5.287-1.96-5.323,8.341,0,6.368l.321-.119a3.21,3.21,0,0,0,0-6.129ZM90.922,198.437c-3.442,0-3.443,5.342,0,5.342S94.364,198.437,90.922,198.437Zm4.214,222.254a2.142,2.142,0,0,0-.927-1.206,2.1,2.1,0,0,0-1.554-.2,3.4,3.4,0,0,0-1.156.562,2.843,2.843,0,0,0-.734.811c-.065.1-.127.207-.191.311a2.526,2.526,0,0,0-.248,1.9,2.472,2.472,0,0,0,3.324,1.594,1.849,1.849,0,0,0,.792-.508,2.459,2.459,0,0,0,.633-1.086l0-.007a2.715,2.715,0,0,0,.26-1.145A3.421,3.421,0,0,0,95.136,420.691Zm54.786-52.154c-3.442,0-3.443,5.342,0,5.342S153.364,368.537,149.922,368.537Zm19.467,22.909c-3.443,0-3.442,5.342,0,5.342S172.832,391.446,169.389,391.446Zm5.727-25.773c-3.443,0-3.442,5.342,0,5.342S178.559,365.673,175.116,365.673ZM71.454,464.08c-3.442,0-3.443,5.341,0,5.341S74.9,464.08,71.454,464.08ZM18.762,336.472a1.515,1.515,0,1,0,1.459,1.459A1.515,1.515,0,0,0,18.762,336.472Zm282.354-36.089c-3.443,0-3.442,5.341,0,5.341S304.559,300.383,301.116,300.383Zm0-20.046c-3.443,0-3.442,5.342,0,5.342S304.559,280.337,301.116,280.337Zm-77.378-55.993c-3.443,0-3.442,5.341,0,5.341S227.181,224.344,223.738,224.344Zm-2.392-113.285c-3.442,0-3.443,5.341,0,5.341S224.788,111.059,221.346,111.059ZM29.552,303.559c-3.443,0-3.442,5.341,0,5.341S32.995,303.559,29.552,303.559Zm-26.97-48.13c-3.443,0-3.442,5.341,0,5.341S6.025,255.429,2.582,255.429ZM22.793,8.12c-3.442,0-3.443,5.342,0,5.342S26.235,8.12,22.793,8.12ZM8.686,27.768c-3.443,0-3.442,5.342,0,5.342S12.129,27.768,8.686,27.768ZM25.815,241.882c-3.443,0-3.442,5.342,0,5.342S29.258,241.882,25.815,241.882ZM304.28,217.344c-3.443,0-3.443,5.342,0,5.342S307.723,217.344,304.28,217.344Z" fill="#000000"/></g></svg>